<?xml version="1.0" encoding="UTF-8" standalone="no"?>
<!DOCTYPE svg PUBLIC "-//W3C//DTD SVG 1.1//EN" "http://www.w3.org/Graphics/SVG/1.1/DTD/svg11.dtd">
<svg xmlns="http://www.w3.org/2000/svg" preserveAspectRatio="xMidYMid meet"  viewBox="0 0 200.54 297"><g data-name="Layer 2"><g data-name="Capa 1"><path d="M172.77 99.09a27.62 27.62 0 00-8.48 1.33V51.93a27.77 27.77 0 00-36.35-26.4 27.76 27.76 0 00-55.34 0 27.77 27.77 0 00-36.35 26.4v9.82A27.76 27.76 0 000 88.18v108.55a100.27 100.27 0 00200.54 0v-69.88a27.8 27.8 0 00-27.77-27.76zm8.48 97.64a81 81 0 11-162 0V88.18a8.49 8.49 0 0117 0v53a9.64 9.64 0 0019.28 0V51.93a8.49 8.49 0 0117 0V117a9.64 9.64 0 0019.28 0V27.77a8.49 8.49 0 1117 0V117a9.64 9.64 0 0019.19 0V51.93a8.49 8.49 0 0117 0v106.74a9.64 9.64 0 0019.28 0v-31.82a8.49 8.49 0 0117 0v69.88z"/><path d="M100.27 153.57a52 52 0 1052 52 52.08 52.08 0 00-52-52zM129.89 227l-14.56-14.57c.16-.35.31-.72.45-1.09h20.62a36.41 36.41 0 01-6.51 15.66zm-65.75-15.62h20.62a10.4 10.4 0 00.45 1.09L70.64 227a36.39 36.39 0 01-6.5-15.62zm6.5-27.23l14.57 14.56a11.55 11.55 0 00-.45 1.1H64.14a36.39 36.39 0 016.5-15.66zm36.51 6.38c-.36-.16-.73-.31-1.1-.45v-20.62a36.41 36.41 0 0115.66 6.54zm-12.67-.45c-.37.14-.73.29-1.09.45L78.82 176a36.41 36.41 0 0115.66-6.51zm-1.09 30.57c.36.17.72.32 1.09.46v20.62a36.53 36.53 0 01-15.66-6.51zm12.66.46c.37-.14.74-.29 1.1-.46l14.56 14.57a36.48 36.48 0 01-15.66 6.51zm9.73-21.3c-.14-.37-.29-.74-.45-1.1l14.56-14.56a36.41 36.41 0 016.51 15.66z" fill="#ef0a0a"/></g></g></svg>